Coordinates
version=1
nRows=49
nColumns=12
inDegrees=yes

Units are S.I. units (second, meters, Newtons, ...)
Angles are in degrees

endheader
time	SC_y	SC_z	SC_x	AC_y	AC_z	AC_x	GH_y	GH_z	GH_yy	EL_x	PS_y
       0.0              -42.57          5.095          21.54          48.32         -19.06         -15.46          133.7         -16.65         -106.1          58.12          134.4
   0.04531              -42.56          5.097          21.54          48.33         -19.06         -15.45          133.7         -16.64         -106.0          58.11          134.3
   0.09062              -42.56          5.099          21.54          48.33         -19.06         -15.45          133.7         -16.62         -106.0          58.11          134.3
    0.1359              -42.56          5.102          21.54          48.33         -19.06         -15.45          133.7         -16.61         -106.0           58.1          134.3
    0.1812              -42.56          5.104          21.55          48.33         -19.05         -15.45          133.7         -16.59         -105.9          58.09          134.3
    0.2265              -42.55          5.107          21.55          48.33         -19.05         -15.45          133.7         -16.57         -105.9          58.09          134.3
    0.2718              -42.55          5.109          21.55          48.33         -19.05         -15.44          133.7         -16.55         -105.8          58.08          134.3
    0.3172              -42.55          5.112          21.56          48.33         -19.04         -15.44          133.7         -16.53         -105.8          58.07          134.2
    0.3625              -42.55          5.116          21.56          48.33         -19.04         -15.44          133.7         -16.51         -105.7          58.07          134.2
    0.4078              -42.54          5.119          21.56          48.34         -19.03         -15.43          133.7         -16.49         -105.7          58.06          134.2
    0.4531              -42.54          5.123          21.57          48.34         -19.03         -15.43          133.7         -16.46         -105.6          58.05          134.2
    0.4984              -42.53          5.127          21.57          48.34         -19.02         -15.43          133.7         -16.43         -105.6          58.04          134.2
    0.5437              -42.53          5.131          21.58          48.34         -19.02         -15.42          133.7          -16.4         -105.5          58.03          134.1
     0.589              -42.53          5.135          21.58          48.34         -19.01         -15.42          133.7         -16.37         -105.4          58.02          134.1
    0.6343              -42.52           5.14          21.59          48.35          -19.0         -15.41          133.7         -16.34         -105.3          58.01          134.1
    0.6796              -42.52          5.146          21.59          48.35          -19.0         -15.41          133.7          -16.3         -105.2          57.99          134.0
    0.7249              -42.51          5.151           21.6          48.35         -18.99          -15.4          133.7         -16.26         -105.1          57.98          134.0
    0.7702               -42.5          5.158          21.61          48.36         -18.98         -15.39          133.7         -16.22         -105.0          57.97          134.0
    0.8155               -42.5          5.165          21.61          48.36         -18.97         -15.39          133.7         -16.17         -104.9          57.95          133.9
    0.8608              -42.49          5.172          21.62          48.36         -18.96         -15.38          133.7         -16.12         -104.8          57.93          133.9
    0.9062              -42.48          5.181          21.63          48.37         -18.95         -15.37          133.7         -16.06         -104.7          57.91          133.8
    0.9515              -42.47           5.19          21.64          48.37         -18.94         -15.36          133.7         -15.99         -104.5          57.89          133.8
    0.9968              -42.46            5.2          21.65          48.38         -18.92         -15.35          133.6         -15.92         -104.3          57.86          133.7
     1.042              -42.45          5.211          21.66          48.38         -18.91         -15.34          133.6         -15.85         -104.1          57.84          133.7
     1.087              -42.44          5.224          21.68          48.39         -18.89         -15.33          133.6         -15.76         -103.9          57.81          133.6
     1.133              -42.42          5.237          21.69           48.4         -18.87         -15.32          133.6         -15.66         -103.7          57.77          133.5
     1.178              -42.41          5.253          21.71           48.4         -18.85          -15.3          133.6         -15.55         -103.4          57.74          133.4
     1.223              -42.39          5.271          21.73          48.41         -18.83         -15.28          133.6         -15.43         -103.2          57.69          133.3
     1.269              -42.37           5.29          21.75          48.42          -18.8         -15.26          133.6         -15.29         -102.8          57.65          133.2
     1.314              -42.35          5.313          21.77          48.43         -18.77         -15.24          133.5         -15.14         -102.4          57.59          133.0
     1.359              -42.32          5.339           21.8          48.45         -18.73         -15.21          133.5         -14.96         -102.0          57.53          132.9
     1.405              -42.29          5.368          21.83          48.46         -18.69         -15.19          133.5         -14.76         -101.5          57.46          132.7
      1.45              -42.26          5.402          21.87          48.48         -18.65         -15.15          133.5         -14.52         -101.0          57.38          132.5
     1.495              -42.22          5.442          21.91           48.5         -18.59         -15.11          133.4         -14.24         -100.3          57.28          132.3
      1.54              -42.17          5.488          21.96          48.52         -18.53         -15.07          133.4         -13.92         -99.52          57.17          132.0
     1.586              -42.12          5.542          22.02          48.55         -18.46         -15.01          133.3         -13.54         -98.61          57.04          131.7
     1.631              -42.05          5.607          22.09          48.58         -18.37         -14.95          133.3         -13.09         -97.53          56.88          131.3
     1.676              -41.97          5.685          22.18          48.62         -18.26         -14.87          133.2         -12.55         -96.23           56.7          130.8
     1.722              -41.88          5.779          22.28          48.66         -18.14         -14.78          133.1          -11.9         -94.66          56.47          130.2
     1.767              -41.76          5.893           22.4          48.72         -17.98         -14.66          133.0          -11.1         -92.75          56.19          129.5
     1.812              -41.62          6.035          22.56          48.79         -17.79         -14.52          132.9         -10.12         -90.38          55.85          128.7
     1.858              -41.44          6.212          22.75          48.88         -17.55         -14.35          132.7         -8.892         -87.43          55.43          127.6
     1.903              -41.22          6.434          22.99          48.99         -17.25         -14.13          132.5         -7.346         -83.71          54.89          126.3
     1.948              -40.93          6.717           23.3          49.13         -16.86         -13.85          132.3         -5.381         -78.99          54.21          124.6
     1.994              -40.57          7.079          23.69           49.3         -16.37         -13.49          131.9         -2.865         -72.94          53.34          122.4
     2.039               -40.1          7.543           24.2          49.53         -15.74         -13.02          131.5         0.3632         -65.18          52.22          119.6
     2.084               -39.5          8.137          24.84          49.83         -14.94         -12.43          131.0          4.487         -55.27          50.79          116.0
     2.129              -38.75          8.883          25.65           50.2         -13.92         -11.69          130.3          9.672         -42.81          48.99          111.5
     2.175              -37.83          9.792          26.64          50.64         -12.69         -10.79          129.5          15.99         -27.62           46.8          106.0
